# xmcd
#
# Track frame offsets:
#	150
#	16802
#	39031
#	72825
#	131685
#	153963
#	177994
#	202755
#	217516
#	230087
#	250705
#	264891
#
# Disc length: 3691 seconds
#
# Revision: 1
# Processed by: cddbd v1.5.1PL2 Copyright (c) Steve Scherf et al.
# Submitted via: audiograbber 1.82.02
#
DISCID=8b0e690c
DTITLE=Big Steve's Blues Attack - Eat This!
DYEAR=1997
DGENRE=Blues
TTITLE0=Check Yourself
TTITLE1=Big And Hot
TTITLE2=Someone Else Is Steppin' In
TTITLE3=One Strike Of Your Eyes
TTITLE4=On The Road Again
TTITLE5=Parchman Farm
TTITLE6=Fool For Love
TTITLE7=Shuffle Thing
TTITLE8=Mary Had A Little Lamb
TTITLE9=Billies Blues
TTITLE10=Little Girl
TTITLE11=I Lost A Heavy Burden
EXTD=
EXTT0=
EXTT1=
EXTT2=
EXTT3=
EXTT4=
EXTT5=
EXTT6=
EXTT7=
EXTT8=
EXTT9=
EXTT10=
EXTT11=
PLAYORDER=
